# xmcd CD database file
#
# Track frame offsets:
#	150
#	17250
#	32325
#	51750
#	65700
#	82875
#	100200
#	116700
#	133350
#	150375
#	169500
#
# Disc length: 2485 seconds
#
# Revision: 0
# Processed by: cddbd v1.5.2PL0 Copyright (c) Steve Scherf et al.
# Submitted via: CDex 1.70beta2
#
DISCID=8009b30b
DTITLE=Jacen Michael Carrol - Waitin' In The Country
DYEAR=1900
DGENRE=Country
TTITLE0=Waitin' In The Country
TTITLE1=I Can Sleep When I'm Dead
TTITLE2=Alyssa Lies
TTITLE3=Lookin' At You
TTITLE4=No Good In Goodbye [With Jewel]/With Jewel
TTITLE5=Livin' Our Love Song
TTITLE6=Anywhere USA
TTITLE7=Honky Tonk Friends
TTITLE8=Love Won't Let Me
TTITLE9=Angel Of Broken Hearts
TTITLE10=Let It Rain
EXTD=
EXTT0=
EXTT1=
EXTT2=
EXTT3=
EXTT4=
EXTT5=
EXTT6=
EXTT7=
EXTT8=
EXTT9=
EXTT10=
PLAYORDER=
